<svg width="32" height="19" viewBox="0 0 32 19" fill="none" xmlns="http://www.w3.org/2000/svg">
<path class="footer-vk" fill-rule="evenodd" clip-rule="evenodd" d="M15.3145 18.5844H17.1855C17.1855 18.5844 17.7507 18.5224 18.0392 18.2113C18.3048 17.9258 18.2963 17.3895 18.2963 17.3895C18.2963 17.3895 18.2598 14.879 19.4249 14.5093C20.5735 14.1451 22.0485 16.9356 23.6118 18.0086C24.794 18.8207 25.6923 18.6426 25.6923 18.6426L29.8724 18.5844C29.8724 18.5844 32.0592 18.4497 31.0223 16.7304C30.9373 16.5897 30.4185 15.4586 27.9143 13.1342C25.2933 10.7014 25.6443 11.0949 28.8016 6.88673C30.7244 4.32393 31.4932 2.75932 31.2531 2.08919C31.024 1.45093 29.6098 1.61963 29.6098 1.61963L24.9032 1.64895C24.9032 1.64895 24.5543 1.60136 24.2956 1.75604C24.0427 1.90774 23.88 2.26129 23.88 2.26129C23.88 2.26129 23.1351 4.24447 22.1416 5.93105C20.0458 9.4899 19.2078 9.67772 18.8653 9.45675C18.0685 8.94173 18.2674 7.38773 18.2674 6.28375C18.2674 2.83495 18.7905 1.39697 17.2488 1.02472C16.7372 0.901066 16.3607 0.819478 15.0523 0.806305C13.373 0.788882 11.9516 0.811403 11.1467 1.20575C10.6113 1.46793 10.1983 2.05222 10.4498 2.08579C10.7609 2.12743 11.4654 2.27574 11.839 2.78439C12.3213 3.44049 12.3043 4.91417 12.3043 4.91417C12.3043 4.91417 12.5813 8.97402 11.6571 9.47842C11.0226 9.82432 10.1524 9.11808 8.28393 5.8894C7.32654 4.23555 6.60372 2.40747 6.60372 2.40747C6.60372 2.40747 6.46435 2.06582 6.21576 1.88309C5.91405 1.6617 5.49251 1.59116 5.49251 1.59116L1.02005 1.62048C1.02005 1.62048 0.348647 1.63918 0.102184 1.93111C-0.117084 2.19075 0.0847612 2.72787 0.0847612 2.72787C0.0847612 2.72787 3.58624 10.9198 7.55091 15.0481C11.1862 18.833 15.3145 18.5844 15.3145 18.5844Z" fill="#95989c"/>
</svg>
